<?xml version="1.0" standalone="no"?>
<!DOCTYPE svg PUBLIC "-//W3C//DTD SVG 20010904//EN"
 "http://www.w3.org/TR/2001/REC-SVG-20010904/DTD/svg10.dtd">
<svg version="1.0" xmlns="http://www.w3.org/2000/svg"
 width="16.000000pt" height="16.000000pt" viewBox="0 0 16.000000 16.000000"
 preserveAspectRatio="xMidYMid meet">
<metadata>
Created by potrace 1.11, written by Peter Selinger 2001-2013
</metadata>
<g transform="translate(0.000000,16.000000) scale(0.003828,-0.003828)"
fill="#000000" stroke="none">
<path d="M213 3731 c-92 -31 -158 -96 -194 -191 -18 -49 -19 -90 -19 -1250 0
-1198 0 -1199 21 -1257 16 -42 37 -73 78 -113 91 -90 91 -90 573 -90 270 0
407 -3 403 -10 -3 -5 -42 -37 -86 -70 -90 -69 -109 -99 -109 -168 0 -63 30
-109 90 -140 l45 -24 1532 6 c1692 6 1573 1 1610 69 17 30 18 112 15 1507 -3
1234 -5 1483 -17 1526 -18 62 -62 124 -117 164 -88 64 36 60 -1957 60 -1717
-1 -1819 -2 -1868 -19z m3527 -566 l0 -155 -697 0 c-771 0 -739 3 -787 -63
-21 -28 -21 -39 -26 -860 l-5 -832 -897 -3 -898 -2 0 1035 0 1035 1655 0 1655
0 0 -155z m140 -779 l0 -335 -297 -3 c-322 -3 -321 -3 -361 -60 -15 -20 -17
-74 -20 -485 l-3 -463 -339 0 -340 0 0 840 0 840 680 0 680 0 0 -334z m150
-1091 l0 -575 -345 0 -345 0 0 568 c0 313 3 572 7 575 3 4 159 7 345 7 l338 0
0 -575z m-830 -520 c0 -140 -1 -145 -20 -145 -54 0 -104 45 -121 111 -11 41
-10 50 10 92 16 33 33 51 64 66 23 12 48 21 55 21 9 0 12 -36 12 -145z m518
-143 c19 -15 23 -26 20 -58 -3 -38 -4 -39 -47 -42 -49 -4 -61 6 -61 50 0 27
33 68 54 68 6 0 21 -8 34 -18z"/>
</g>
</svg>
